# AST/ASF file generated using VICON BodyLanguage
# -----------------------------------------------
:version 1.10
:name VICON
:units
  mass 1.0
  length 0.45
  angle deg
:documentation
   .ast/.asf automatically generated from VICON data using
   VICON BodyBuilder and BodyLanguage model FoxedUp or BRILLIANT.MOD
:root
   order TX TY TZ RX RY RZ
   axis XYZ
   position 0 0 0  
   orientation 0 0 0 
:bonedata
  begin
     id 1 
     name lhipjoint
     direction 0.561001 -0.76473 0.316963 
     length 2.4722 
     axis 0 0 0  XYZ
  end
  begin
     id 2 
     name lfemur
     direction 0.34202 -0.939693 0  
     length 7.59403  
     axis 0 0 20  XYZ
    dof rx ry rz
    limits (-160.0 20.0)
           (-70.0 70.0)
           (-60.0 70.0)
  end
  begin
     id 3 
     name ltibia
     direction 0.34202 -0.939693 0   
     length 7.89655   
     axis 0 0 20   XYZ
    dof rx
    limits (-10.0 170.0)
  end
  begin
     id 4 
     name lfoot
     direction 0.061296 -0.168409 0.98381   
     length 2.73287   
     axis -90 7.62852e-016 20   XYZ
    dof rx rz
    limits (-45.0 90.0)
           (-70.0 20.0)
  end
  begin
     id 5 
     name ltoes
     direction 1.53547e-011 -4.21984e-011 1   
     length 1.37057   
     axis -90 7.62852e-016 20   XYZ
    dof rx
    limits (-90.0 20.0)
  end
  begin
     id 6 
     name rhipjoint
     direction -0.559611 -0.765599 0.317323   
     length 2.46939  
     axis 0 0 0  XYZ 
  end
  begin
     id 7 
     name rfemur
     direction -0.34202 -0.939693 0   
     length 7.53712   
     axis 0 0 -20   XYZ
    dof rx ry rz
    limits (-160.0 20.0)
           (-70.0 70.0)
           (-70.0 60.0)
  end
  begin
     id 8 
     name rtibia
     direction -0.34202 -0.939693 0   
     length 8.12549   
     axis 0 0 -20   XYZ
    dof rx
    limits (-10.0 170.0)
 end
 begin
     id 9 
     name rfoot
     direction -0.066984 -0.184037 0.980634   
     length 2.67541  
     axis -90 -7.62852e-016 -20   XYZ
    dof rx rz
    limits (-45.0 90.0)
           (-20.0 70.0)
  end
  begin
     id 10 
     name rtoes
     direction -1.53549e-011 -4.21786e-011 1   
     length 1.34085   
     axis -90 -7.62852e-016 -20   XYZ
    dof rx
    limits (-90.0 20.0)
  end
  begin
     id 11 
     name lowerback
     direction -0.0522728 0.992594 -0.109658   
     length 2.05633   
     axis 0 0 0   XYZ
    dof rx ry rz
    limits (-20.0 45.0)
           (-30.0 30.0)
           (-30.0 30.0)
  end
  begin
     id 12 
     name upperback
     direction 0.00589338 0.999977 0.00335704   
     length 2.05845   
     axis 0 0 0   XYZ
    dof rx ry rz
    limits (-20.0 45.0)
           (-30.0 30.0)
           (-30.0 30.0)
  end
  begin
     id 13 
     name thorax
     direction 0.0292928 0.998059 0.0549487   
     length 2.09281   
     axis 0 0 0   XYZ
    dof rx ry rz
    limits (-20.0 45.0)
           (-30.0 30.0)
           (-30.0 30.0)
  end
  begin
     id 14 
     name lowerneck
     direction 0.0356368 0.980775 0.191858   
     length 1.84767   
     axis 0 0 0   XYZ
    dof rx ry rz
    limits (-20.0 45.0)
           (-30.0 30.0)
           (-30.0 30.0)
  end
  begin
     id 15 
     name upperneck
     direction -0.0227605 0.98931 -0.14404   
     length 1.89582   
     axis 0 0 0   XYZ
    dof rx ry rz
    limits (-20.0 45.0)
           (-30.0 30.0)
           (-30.0 30.0)
  end
  begin
     id 16
     name head
     direction -0.00932985 0.997511 -0.0698904  
     length 1.90213  
     axis 0 0 0   XYZ
    dof rx ry rz
    limits (-20.0 45.0)
           (-30.0 30.0)
           (-30.0 30.0)
  end
  begin
     id 17 
     name lclavicle
     direction 0.873442 0.479511 0.0846686  
     length 3.41193  
     axis 0 0 0   XYZ
    dof ry rz
    limits (-20.0 10.0)
           (0.0 20.0)
  end
  begin
     id 18 
     name lhumerus
     direction 1 -4.4897e-011 -5.62117e-018   
     length 5.59864   
     axis 180 -30 -90   XYZ
    dof rx ry rz
    limits (-60.0 90.0)
           (-90.0 90.0)
           (-90.0 90.0)
  end
  begin
     id 19
     name lradius
     direction 1 -4.48966e-011 -6.26295e-027   
     length 3.59542   
     axis 180 -30 -90   XYZ
    dof rx
    limits (-10.0 170.0)
  end
  begin
     id 20
     name lwrist
     direction 1 -4.48947e-011 -1.74096e-026   
     length 1.79771   
     axis 1.04567e-014 90 90   XYZ
    dof ry
    limits (-180.0 0.0)
 end
  begin
     id 21 
     name lhand
     direction 1 -4.49085e-011 -3.48469e-026   
     length 0.572014   
     axis 2.22196e-014 90 90   XYZ
    dof rx rz
    limits (-90.0 90.0)
           (-45.0 45.0)
  end
  begin
     id 22 
     name lfingers
     direction 1 -4.48884e-011 -6.96135e-026   
     length 0.461173   
     axis 4.44383e-014 90 90   XYZ
    dof rx
    limits (0.0 90.0)
  end
  begin
     id 23
     name lthumb
     direction 0.707107 -6.34976e-011 0.707107   
     length 0.662154   
     axis -90 45 -5.4397e-014   XYZ
    dof rx rz
    limits (-45.0 45.0)
           (-45.0 45.0)
  end
  begin
     id 24 
     name rclavicle
     direction -0.890242 0.443271 0.104786   
     length 3.46753  
     axis 0 0 0   XYZ 
    dof ry rz
    limits (-10.0 20.0)
           (-20.0 0.0)
  end
  begin
     id 25 
     name rhumerus
     direction -1 -4.48963e-011 -5.41723e-018  
     length 5.8094   
     axis 180 30 90   XYZ
    dof rx ry rz
    limits (-90.0 60.0)
           (-90.0 90.0)
           (-90.0 90.0)
  end
  begin
     id 26 
     name rradius
     direction -1 -4.48958e-011 -6.51059e-027   
     length 3.66953   
     axis 180 30 90   XYZ
    dof rx
    limits (-10.0 170.0)
  end
  begin
     id 27 
     name rwrist
     direction -1 -4.48975e-011 -1.74124e-026   
     length 1.83476   
     axis 1.04567e-014 -90 -90   XYZ
    dof ry
    limits (-180.0 0.0)
  end
  begin
     id 28
     name rhand
     direction -1 -4.49013e-011 -3.48326e-026   
     length 0.57843   
     axis 2.22196e-014 -90 -90   XYZ
    dof rx rz
    limits (-90.0 90.0)
           (-45.0 45.0)
  end
  begin
     id 29
     name rfingers
     direction -1 -4.49023e-011 -6.9669e-026   
     length 0.466345   
     axis 4.44383e-014 -90 -90   XYZ
    dof rx
    limits (0.0 90.0)
  end
  begin
     id 30
     name rthumb
     direction -0.707107 -6.34926e-011 0.707107   
     length 0.669581   
     axis -90 -45 5.4397e-014   XYZ
    dof rx rz
    limits (-45.0 45.0)
           (-45.0 45.0)
  end
:hierarchy
  begin
    root lhipjoint rhipjoint lowerback
    lhipjoint lfemur
    lfemur ltibia
    ltibia lfoot
    lfoot ltoes
    rhipjoint rfemur
    rfemur rtibia
    rtibia rfoot
    rfoot rtoes
    lowerback upperback
    upperback thorax
    thorax lowerneck lclavicle rclavicle
    lowerneck upperneck
    upperneck head
    lclavicle lhumerus
    lhumerus lradius
    lradius lwrist
    lwrist lhand lthumb
    lhand lfingers
    rclavicle rhumerus
    rhumerus rradius
    rradius rwrist
    rwrist rhand rthumb
    rhand rfingers
  end

#!OML:ASF H:\SkateBoarding\Project 1\Capture day 1\Session 1\Skater.ASF
:FULLY-SPECIFIED
:DEGREES
82
root 21.8757 17.5587 3.75914 11.2994 35.3525 1.93254
lowerback 15.6584 -2.04967 -3.70441
upperback -0.102169 -3.36439 0.142838
thorax -8.6853 -1.44558 3.01236
lowerneck -23.9507 -3.81609 -4.79515
upperneck 33.174 -3.27668 -0.355068
head 15.8967 -1.97708 0.0191578
rclavicle 6.05299e-014 -1.59028e-015
rhumerus -22.1685 31.6659 -65.8361
rradius 61.8904
rwrist -9.29291
rhand -45.9292 6.03091
rfingers 7.12502
rthumb -18.6776 -23.0924
lclavicle 6.05299e-014 -1.59028e-015
lhumerus 25.2378 -30.6831 56.8756
lradius 89.3037
lwrist 27.5157
lhand -31.9878 -4.24313
lfingers 7.12502
lthumb -5.23694 25.6722
rfemur -54.3781 -6.80888 20.0951
rtibia 72.1106
rfoot -27.0125 11.9072
rtoes -22.7935
lfemur -0.975373 -3.70279 3.53644
ltibia 58.7716
lfoot -14.8617 0.211809
ltoes -16.9328
83
root 21.8013 17.6426 4.18717 11.0098 36.1763 1.75158
lowerback 15.8569 -2.06511 -3.52851
upperback -0.0921682 -3.36453 0.0862093
thorax -8.79992 -1.45065 2.86237
lowerneck -23.9234 -3.94273 -4.81274
upperneck 33.395 -3.49817 -0.23414
head 16.007 -2.05126 0.0271132
rclavicle 7.83212e-014 -5.76476e-015
rhumerus -22.1369 31.3651 -66.3332
rradius 61.7826
rwrist -9.23896
rhand -46.1003 5.93714
rfingers 7.12502
rthumb -18.8422 -23.1703
lclavicle 7.83212e-014 -5.76476e-015
lhumerus 24.529 -31.0956 58.4885
lradius 88.6929
lwrist 27.4951
lhand -31.8837 -4.50794
lfingers 7.12502
lthumb -5.13645 25.4098
rfemur -53.3208 -7.03212 20.677
rtibia 71.2613
rfoot -27.3938 11.1178
rtoes -23.0689
lfemur -3.38096 -2.34239 3.6634
ltibia 62.4079
lfoot -16.4614 -1.88545
ltoes -18.5038
84
root 21.7305 17.7259 4.60699 11.1905 37.0659 2.10567
lowerback 15.9122 -2.01594 -3.79362
upperback -0.119519 -3.3603 -0.0157279
thorax -8.85299 -1.437 2.90488
lowerneck -23.8289 -4.15178 -4.95538
upperneck 33.5326 -3.81288 -0.0619768
head 16.0706 -2.17177 0.0612712
rclavicle 4.87022e-014 -2.32578e-014
rhumerus -22.1889 30.8641 -66.6926
rradius 61.7125
rwrist -9.21899
rhand -46.1658 5.81716
rfingers 7.12502
rthumb -18.9051 -23.2841
lclavicle 4.87022e-014 -2.32578e-014
lhumerus 23.8 -31.5946 60.287
lradius 88.0862
lwrist 27.4354
lhand -31.7875 -4.64894
lfingers 7.12502
lthumb -5.04353 25.271
rfemur -52.5286 -7.51307 20.7601
rtibia 70.4595
rfoot -27.6118 10.5208
rtoes -23.2224
lfemur -5.93643 -1.19182 3.08368
ltibia 65.7199
lfoot -18.1182 -3.5624
ltoes -19.3181
85
root 21.6511 17.8066 5.03988 11.3394 38.0803 2.39547
lowerback 15.935 -2.04697 -4.21505
upperback -0.121514 -3.4758 0.0306383
thorax -8.83227 -1.47288 3.21934
lowerneck -23.8514 -4.30639 -5.23383
upperneck 33.6411 -3.96062 0.0559534
head 16.1472 -2.24942 0.127469
rclavicle -2.42517e-014 -1.64991e-014
rhumerus -22.1448 30.8014 -66.9061
rradius 61.8084
rwrist -9.41811
rhand -46.1874 5.86138
rfingers 7.12502
rthumb -18.9259 -23.2379
lclavicle -2.42517e-014 -1.64991e-014
lhumerus 22.2842 -31.6798 61.8561
lradius 88.2398
lwrist 27.6365
lhand -32.0032 -4.86634
lfingers 7.12502
lthumb -5.25183 25.0486
rfemur -51.735 -7.84511 20.8893
rtibia 69.6715
rfoot -27.976 9.72729
rtoes -23.3197
lfemur -8.4389 -0.160983 2.50046
ltibia 68.6519
lfoot -19.6863 -4.76518
ltoes -20.5276
86
root 21.5725 17.8772 5.46855 11.5184 39.0942 2.5485
lowerback 15.8171 -1.98204 -4.22124
upperback -0.179725 -3.40729 -0.188989
thorax -8.84873 -1.44377 2.96669
lowerneck -23.6195 -4.59171 -5.23801
upperneck 33.7322 -4.52373 0.391488
head 16.1665 -2.42943 0.160599
rclavicle 2.62396e-014 -1.35174e-014
rhumerus -22.6577 30.1063 -67.6201
rradius 61.9577
rwrist -9.49737
rhand -46.2319 5.8538
rfingers 7.12502
rthumb -18.9687 -23.2413
lclavicle 2.62396e-014 -1.35174e-014
lhumerus 22.1653 -32.5253 63.8639
lradius 86.7825
lwrist 27.3432
lhand -31.6158 -4.75405
lfingers 7.12502
lthumb -4.87772 25.1698
rfemur -51.148 -8.12138 21.1137
rtibia 68.9069
rfoot -28.3428 9.0046
rtoes -23.3131
lfemur -10.9161 0.895899 1.90685
ltibia 71.2381
lfoot -21.2301 -5.69159
ltoes -21.2307
87
root 21.4944 17.9417 5.89504 11.6921 40.2209 2.66213
lowerback 15.6738 -1.96142 -4.27984
upperback -0.204002 -3.39022 -0.252646
thorax -8.79636 -1.43604 2.92077
lowerneck -23.4906 -4.88008 -5.41232
upperneck 33.7959 -4.96259 0.600956
head 16.1983 -2.59927 0.191763
rclavicle 9.93923e-016 -2.5842e-014
rhumerus -23.0533 29.6184 -68.0542
rradius 62.1868
rwrist -9.52659
rhand -46.4186 5.43739
rfingers 7.12502
rthumb -19.1483 -23.64
lclavicle 9.93923e-016 -2.5842e-014
lhumerus 21.4011 -33.0746 65.6511
lradius 86.049
lwrist 27.1225
lhand -31.807 -4.9464
lfingers 7.12502
lthumb -5.06239 24.9731
rfemur -50.6113 -8.43874 21.3565
rtibia 68.1576
rfoot -28.7336 8.28123
rtoes -23.4124
lfemur -13.3297 1.82124 1.23805
ltibia 73.468
lfoot -22.567 -6.44662
ltoes -21.1657
